# xmcd CD database file
#
# Track frame offsets:
#	182
#	21612
#	86440
#	121820
#
# Disc length: 2133 seconds
#
# Revision: 0
# Processed by: cddbd v1.5PL3 Copyright (c) Steve Scherf et al.
# Submitted via: CDex 1.50beta9
#
DISCID=2a085304
DTITLE=Anthony Braxton - Kol Nidre
DYEAR=1990
DGENRE=Jazz
TTITLE0=Composition No.85
TTITLE1=Composition No.87
TTITLE2=Kol Nidre
TTITLE3=Break'n Rag Voigt
EXTD=YEAR: 1990
EXTT0=
EXTT1=
EXTT2=
EXTT3=
PLAYORDER=
